<mxfile host="app.diagrams.net" modified="2022-05-25T09:02:41.139Z" agent="5.0 (Windows NT 6.2; Win64; x64) AppleWebKit/537.36 (KHTML, like Gecko) Chrome/101.0.4951.67 Safari/537.36" etag="1fpqGjgDOEhiqVtdD1da" version="18.1.2" type="github">
  <diagram id="pFDNP5mb8e0qxgo9ncbL" name="Page-1">
    <mxGraphModel dx="1769" dy="614" grid="1" gridSize="10" guides="1" tooltips="1" connect="1" arrows="1" fold="1" page="1" pageScale="1" pageWidth="827" pageHeight="1169" math="0" shadow="0">
      <root>
        <mxCell id="0" />
        <mxCell id="1" parent="0" />
        <mxCell id="CqVjW5NZVY2vqnKtvFww-1" value="不同团队的用户数据权限" style="swimlane;childLayout=stackLayout;resizeParent=1;resizeParentMax=0;startSize=20;" vertex="1" parent="1">
          <mxGeometry x="-10" y="190" width="740" height="610" as="geometry" />
        </mxCell>
        <mxCell id="CqVjW5NZVY2vqnKtvFww-2" value="浏览器终端" style="swimlane;startSize=20;" vertex="1" parent="CqVjW5NZVY2vqnKtvFww-1">
          <mxGeometry y="20" width="180" height="590" as="geometry" />
        </mxCell>
        <mxCell id="CqVjW5NZVY2vqnKtvFww-5" value="终端用户" style="rounded=0;whiteSpace=wrap;html=1;" vertex="1" parent="CqVjW5NZVY2vqnKtvFww-2">
          <mxGeometry x="40" y="50" width="120" height="60" as="geometry" />
        </mxCell>
        <mxCell id="CqVjW5NZVY2vqnKtvFww-24" value="分页展示" style="whiteSpace=wrap;html=1;" vertex="1" parent="CqVjW5NZVY2vqnKtvFww-2">
          <mxGeometry x="40" y="430" width="120" height="60" as="geometry" />
        </mxCell>
        <mxCell id="CqVjW5NZVY2vqnKtvFww-3" value="技术服务平台" style="swimlane;startSize=20;" vertex="1" parent="CqVjW5NZVY2vqnKtvFww-1">
          <mxGeometry x="180" y="20" width="190" height="590" as="geometry" />
        </mxCell>
        <mxCell id="CqVjW5NZVY2vqnKtvFww-7" value="发起远程调用" style="whiteSpace=wrap;html=1;rounded=0;" vertex="1" parent="CqVjW5NZVY2vqnKtvFww-3">
          <mxGeometry x="50" y="50" width="120" height="60" as="geometry" />
        </mxCell>
        <mxCell id="CqVjW5NZVY2vqnKtvFww-15" value="是" style="edgeStyle=orthogonalEdgeStyle;rounded=0;orthogonalLoop=1;jettySize=auto;html=1;" edge="1" parent="CqVjW5NZVY2vqnKtvFww-3" source="CqVjW5NZVY2vqnKtvFww-13" target="CqVjW5NZVY2vqnKtvFww-14">
          <mxGeometry relative="1" as="geometry" />
        </mxCell>
        <mxCell id="CqVjW5NZVY2vqnKtvFww-23" value="否" style="edgeStyle=orthogonalEdgeStyle;rounded=0;orthogonalLoop=1;jettySize=auto;html=1;" edge="1" parent="CqVjW5NZVY2vqnKtvFww-3" source="CqVjW5NZVY2vqnKtvFww-13" target="CqVjW5NZVY2vqnKtvFww-18">
          <mxGeometry relative="1" as="geometry" />
        </mxCell>
        <mxCell id="CqVjW5NZVY2vqnKtvFww-13" value="是否在研发部门的团队列表中" style="rhombus;whiteSpace=wrap;html=1;" vertex="1" parent="CqVjW5NZVY2vqnKtvFww-3">
          <mxGeometry x="50" y="140" width="100" height="90" as="geometry" />
        </mxCell>
        <mxCell id="CqVjW5NZVY2vqnKtvFww-14" value="发起远程调用" style="whiteSpace=wrap;html=1;" vertex="1" parent="CqVjW5NZVY2vqnKtvFww-3">
          <mxGeometry x="40" y="280" width="120" height="60" as="geometry" />
        </mxCell>
        <mxCell id="CqVjW5NZVY2vqnKtvFww-18" value="提示无权限" style="whiteSpace=wrap;html=1;" vertex="1" parent="CqVjW5NZVY2vqnKtvFww-3">
          <mxGeometry x="-140" y="155" width="120" height="60" as="geometry" />
        </mxCell>
        <mxCell id="CqVjW5NZVY2vqnKtvFww-20" value="根据用户所在团队筛选数据" style="whiteSpace=wrap;html=1;" vertex="1" parent="CqVjW5NZVY2vqnKtvFww-3">
          <mxGeometry x="40" y="430" width="120" height="60" as="geometry" />
        </mxCell>
        <mxCell id="CqVjW5NZVY2vqnKtvFww-4" value="Eureka" style="swimlane;startSize=20;" vertex="1" parent="CqVjW5NZVY2vqnKtvFww-1">
          <mxGeometry x="370" y="20" width="210" height="590" as="geometry" />
        </mxCell>
        <mxCell id="CqVjW5NZVY2vqnKtvFww-16" value="服务列表数据" style="whiteSpace=wrap;html=1;" vertex="1" parent="CqVjW5NZVY2vqnKtvFww-4">
          <mxGeometry x="50" y="280" width="120" height="60" as="geometry" />
        </mxCell>
        <mxCell id="CqVjW5NZVY2vqnKtvFww-6" value="MIS系统" style="swimlane;startSize=20;" vertex="1" parent="CqVjW5NZVY2vqnKtvFww-1">
          <mxGeometry x="580" y="20" width="160" height="590" as="geometry" />
        </mxCell>
        <mxCell id="CqVjW5NZVY2vqnKtvFww-9" value="用户所在团队" style="whiteSpace=wrap;html=1;rounded=0;" vertex="1" parent="CqVjW5NZVY2vqnKtvFww-6">
          <mxGeometry x="20" y="50" width="120" height="60" as="geometry" />
        </mxCell>
        <mxCell id="CqVjW5NZVY2vqnKtvFww-8" value="" style="edgeStyle=orthogonalEdgeStyle;rounded=0;orthogonalLoop=1;jettySize=auto;html=1;" edge="1" parent="CqVjW5NZVY2vqnKtvFww-1" source="CqVjW5NZVY2vqnKtvFww-5" target="CqVjW5NZVY2vqnKtvFww-7">
          <mxGeometry relative="1" as="geometry" />
        </mxCell>
        <mxCell id="CqVjW5NZVY2vqnKtvFww-10" value="" style="edgeStyle=orthogonalEdgeStyle;rounded=0;orthogonalLoop=1;jettySize=auto;html=1;" edge="1" parent="CqVjW5NZVY2vqnKtvFww-1" source="CqVjW5NZVY2vqnKtvFww-7" target="CqVjW5NZVY2vqnKtvFww-9">
          <mxGeometry relative="1" as="geometry" />
        </mxCell>
        <mxCell id="CqVjW5NZVY2vqnKtvFww-12" value="" style="edgeStyle=orthogonalEdgeStyle;rounded=0;orthogonalLoop=1;jettySize=auto;html=1;entryX=1;entryY=0.5;entryDx=0;entryDy=0;exitX=0.5;exitY=1;exitDx=0;exitDy=0;" edge="1" parent="CqVjW5NZVY2vqnKtvFww-1" source="CqVjW5NZVY2vqnKtvFww-9" target="CqVjW5NZVY2vqnKtvFww-13">
          <mxGeometry relative="1" as="geometry">
            <mxPoint x="350" y="210" as="targetPoint" />
          </mxGeometry>
        </mxCell>
        <mxCell id="CqVjW5NZVY2vqnKtvFww-17" value="" style="edgeStyle=orthogonalEdgeStyle;rounded=0;orthogonalLoop=1;jettySize=auto;html=1;" edge="1" parent="CqVjW5NZVY2vqnKtvFww-1" source="CqVjW5NZVY2vqnKtvFww-14" target="CqVjW5NZVY2vqnKtvFww-16">
          <mxGeometry relative="1" as="geometry" />
        </mxCell>
        <mxCell id="CqVjW5NZVY2vqnKtvFww-21" value="" style="edgeStyle=orthogonalEdgeStyle;rounded=0;orthogonalLoop=1;jettySize=auto;html=1;entryX=1;entryY=0.5;entryDx=0;entryDy=0;exitX=0.5;exitY=1;exitDx=0;exitDy=0;" edge="1" parent="CqVjW5NZVY2vqnKtvFww-1" source="CqVjW5NZVY2vqnKtvFww-16" target="CqVjW5NZVY2vqnKtvFww-20">
          <mxGeometry relative="1" as="geometry" />
        </mxCell>
        <mxCell id="CqVjW5NZVY2vqnKtvFww-25" value="" style="edgeStyle=orthogonalEdgeStyle;rounded=0;orthogonalLoop=1;jettySize=auto;html=1;" edge="1" parent="CqVjW5NZVY2vqnKtvFww-1" source="CqVjW5NZVY2vqnKtvFww-20" target="CqVjW5NZVY2vqnKtvFww-24">
          <mxGeometry relative="1" as="geometry" />
        </mxCell>
      </root>
    </mxGraphModel>
  </diagram>
</mxfile>
